<?xml version="1.0" encoding="UTF-8" standalone="no"?>
<!-- Creator: CorelDRAW -->
<svg
   xmlns:dc="http://purl.org/dc/elements/1.1/"
   xmlns:cc="http://web.resource.org/cc/"
   xmlns:rdf="http://www.w3.org/1999/02/22-rdf-syntax-ns#"
   xmlns:svg="http://www.w3.org/2000/svg"
   xmlns="http://www.w3.org/2000/svg"
   xmlns:sodipodi="http://inkscape.sourceforge.net/DTD/sodipodi-0.dtd"
   xmlns:inkscape="http://www.inkscape.org/namespaces/inkscape"
   xml:space="preserve"
   width="202mm"
   height="242mm"
   shape-rendering="geometricPrecision"
   text-rendering="geometricPrecision"
   image-rendering="optimizeQuality"
   fill-rule="evenodd"
   clip-rule="evenodd"
   viewBox="0 0 202000 242000"
   id="svg1887"
   sodipodi:version="0.32"
   inkscape:version="0.43"
   sodipodi:docname="Kleines_Stadtwappen_Ueckermünde.svg"
   sodipodi:docbase="C:\foo\wikipedia\transfer"><metadata
   id="metadata1906"><rdf:RDF><cc:Work
       rdf:about=""><dc:format>image/svg+xml</dc:format><dc:type
         rdf:resource="http://purl.org/dc/dcmitype/StillImage" /></cc:Work></rdf:RDF></metadata><defs
   id="defs1904">
  <metadata
   id="CorelCorpID_0Corel-Layer" />
  
  
  
  
  
  
 </defs><sodipodi:namedview
   inkscape:window-height="721"
   inkscape:window-width="1024"
   inkscape:pageshadow="2"
   inkscape:pageopacity="0.0"
   borderopacity="1.0"
   bordercolor="#666666"
   pagecolor="#ffffff"
   id="base"
   inkscape:zoom="0.43966025"
   inkscape:cx="357.87402"
   inkscape:cy="428.74014"
   inkscape:window-x="-4"
   inkscape:window-y="-4"
   inkscape:current-layer="svg1887" />
 <g
   id="g1915"><path
     d="M 64215.4,115161 C 63187.9,118713.2 63432.5,122646.8 66710.8,124101 C 66123.7,121693.2 66808.7,120191.3 69108.3,119333 C 68545.6,122074.6 69573.2,123099.7 71090,124005.7 C 70796.4,121955.4 71481.4,120668.1 73463,120811.1 C 74001.2,123242.8 75885,124673.2 77891.1,125722.2 C 77352.9,124911.6 77304,123457.4 77793.3,122456.1 C 81071.5,126079.8 85303.9,126270.5 90661.6,126651.9 C 94869.5,126938 101401.6,127987 106367.9,128249.2 C 102845,130323.3 99273.2,131539.1 94331.3,132087.5 C 90784,132492.7 87456.8,132588.1 82612.8,132492.7 C 80288.6,132445.1 75444.7,133541.7 73585.4,138214.4 C 72851.4,140073.9 71603.7,142219.5 70086.9,142815.5 C 68619,143363.8 66833.1,145604.8 66294.9,146844.5 C 63139,145390.2 58955.5,145843.2 58221.6,145986.2 C 53964.8,146868.3 50001.5,151731.7 48142.2,155045.4 C 46894.5,157238.7 44056.6,159098.3 41414.4,157810.9 C 39530.6,156881.1 39432.8,154163.4 40435.8,151254.9 C 37695.8,153329 38380.8,157810.9 41023,159217.5 C 43591.8,160552.5 47799.7,159765.8 50588.6,156952.6 C 53059.6,154497.1 57438.7,152756.8 60056.4,153948.8 C 60986.1,154377.9 62454,154735.5 63921.8,154473.3 C 63530.4,155403 62992.2,156595 62233.8,156976.5 C 60717,157739.4 59860.7,159503.5 59640.5,160790.9 C 59175.7,163294.1 58172.7,164724.5 55236.9,166417.2 C 57463.2,166321.8 59077.9,166321.8 60863.8,163723.2 C 62184.9,161839.9 63554.9,160004.2 64509,159408.2 C 65169.5,158979.1 66588.5,158526.1 67028.8,157214.9 C 67053.3,157167.2 67420.3,156666.6 67713.9,156571.2 C 68765.8,159145.9 70086.9,162149.8 69891.2,166894 C 69866.7,168014.4 69793.3,170493.8 70331.6,171685.8 C 70502.8,172067.3 70453.9,173330.8 70160.3,173593 C 67420.3,175929.3 61597.7,178670.9 59126.8,180172.9 C 57683.4,181078.8 54625.3,183200.6 54087.1,183772.7 C 51077.9,187015 47970.9,184750.2 47016.8,182652.2 C 48558.1,180411.3 48998.4,175190.3 44839.5,175309.5 C 41341,170446.1 37035.3,170040.8 35102.6,173616.9 C 36937.4,174141.3 38160.6,176501.5 38527.6,178265.7 C 35053.6,180125.2 35640.8,187038.8 41414.4,186490.5 C 41267.6,186585.9 42123.9,188159.3 42295.1,188063.9 C 41120.8,189017.5 38038.3,189732.7 37622.4,189041.4 C 35102.6,185036.2 30062.9,185346.2 29500.2,189899.6 C 27665.3,190400.3 22503.3,193976.3 28154.6,200389.3 C 27885.5,198339 29255.5,196765.6 30478.7,197147 C 31604.1,202987.8 38185.1,202749.4 39873.2,197909.9 C 40460.3,198219.8 42490.9,197862.2 43371.6,197147 C 42980.2,197528.4 42075,198839.6 42026,199197.2 C 38405.3,199316.4 36888.5,203774.5 39188.1,205348 C 37622.4,208733.3 40607.1,214025.8 44692.7,214240.3 C 43689.6,212881.4 43298.2,210163.7 45010.7,208971.7 C 48019.9,210497.4 52056.5,207350.6 49903.6,202344.1 C 50295.1,202034.2 50808.8,201152.1 51053.5,200889.9 C 52032.1,200699.2 54209.4,200150.9 55139.1,199388 C 51811.9,202964 55236.9,207755.8 58710.9,206826.1 C 59567.1,208304.2 59151.2,210545.1 58417.3,211165 C 61573.2,211808.6 65340.8,209067 64411.1,205443.3 C 67175.6,203369.3 66123.7,198219.8 63114.5,197647.6 C 62943.3,196503.3 63848.4,195216 64729.2,195883.5 C 66368.3,197075.5 67640.5,196527.2 68178.7,195359 C 71041,195859.6 76863.6,194620 79677,192927.3 C 78845.2,192760.4 77744.3,192259.8 77255,191496.9 C 81732.1,191735.3 87995,190138 92887.9,187420.3 C 91664.7,187062.7 90808.4,186347.5 90319.1,185441.5 C 93426.1,186419 99493.3,185060.1 102184.5,182819.1 C 97731.9,182962.2 95040.8,180602 93695.2,172615.6 C 94649.4,172830.1 96117.2,173187.7 97731.9,172210.3 C 94404.7,170660.7 92814.5,167728.4 92839,161243.9 C 93279.3,161696.8 95212,163198.7 96679.9,163270.3 C 93426.1,158430.7 95774.7,153615 98319,150062.9 C 101817.5,145247.2 110233.3,140550.7 117205.7,137880.6 C 118551.3,137380 120484,137117.7 122049.7,137880.6 C 121731.7,139764 118942.7,144126.7 117254.6,145771.7 C 115224.1,147702.7 113120.1,150921.1 113120.1,155569.9 C 113120.1,157334.1 113413.7,160957.8 112777.6,162221.3 C 112092.6,163532.5 110893.8,166965.5 111701.2,168991.9 C 108104.9,169683.2 106294.5,171852.7 105095.7,174332.1 C 103627.9,177288.2 103848,181341 106025.4,184917 C 107370.9,187086.5 107248.6,190424.1 105634,191592.3 C 103897,192808.1 102624.8,191306.2 101621.8,189375.1 C 100961.2,193261.1 104679.8,195907.3 109156.9,193141.9 C 111970.3,191377.7 112043.7,188898.3 110942.8,184702.5 C 110429,182699.9 110796,179267 114490.1,177812.7 C 114416.7,184678.6 117303.6,186824.3 122441.1,185942.2 C 119236.3,184130.3 118624.7,181531.8 119138.4,179863 C 119407.5,178933.2 119970.2,177693.5 119823.4,176430 C 122514.5,178051.1 127187.3,179910.6 130587.8,180816.6 C 131468.6,181031.1 133181.1,182270.8 133768.2,183272.1 C 134942.5,185274.6 137658.1,187110.3 139541.9,188016.3 C 140226.9,188350 139664.2,190924.7 139321.7,191282.3 C 136826.3,194024 133230,197480.8 131493,201652.8 C 131101.6,202630.2 129756,201938.9 129389.1,200937.6 C 131248.4,197147 129731.6,193714 126135.3,194238.5 C 122734.7,189422.8 117939.6,188993.7 115517.7,192522 C 117646.1,193308.8 119554.3,194906 120043.6,196431.8 C 116373.9,198815.8 117817.3,203941.4 122269.9,205276.5 C 121707.2,206563.8 119701.1,207207.5 117915.2,205967.8 C 118159.8,201009.1 111040.6,200818.4 109401.5,204370.5 C 103212,203464.6 100178.4,211045.8 105120.2,215813.8 C 105291.5,213644.3 107395.4,212500 108936.7,213000.6 C 109695.1,216815.1 114465.7,217816.3 116398.4,213906.6 C 117401.4,214669.5 119799,214860.2 121609.3,214550.3 C 121609.3,214574.1 120704.1,215909.1 120704.1,215885.3 C 119334.1,215122.4 115933.6,215313.1 114857.1,216433.6 C 113829.6,217506.4 113658.3,220081.1 114808.2,220605.6 C 111627.8,225135.2 115713.4,229807.9 119138.4,230999.9 C 118526.8,229211.9 119211.8,226804 120655.2,225826.6 C 123052.7,228401.3 127725.5,223847.9 126722.4,220701 C 127407.4,220343.4 128483.9,219580.5 128973.2,218889.1 C 130171.9,219318.3 132129.1,218650.7 132960.9,217387.2 C 132960.9,217411.1 133376.8,218030.9 133376.8,218030.9 C 131688.7,219723.5 131982.3,222107.6 133768.2,223490.3 C 135187.2,224610.8 138685.6,225659.7 140593.9,223085 C 141278.9,224110.1 141205.5,225826.6 140496,226994.8 C 144141.2,227662.3 146661.1,221654.6 144948.6,218913 C 146416.4,216695.9 144826.2,212476.2 141621.4,213048.3 C 140985.3,212047 141181,210473.6 142918,210473.6 C 143651.9,210473.6 145046.4,210831.2 145804.8,210759.7 C 146979.1,210640.5 150110.6,209257.8 151994.4,207684.3 C 151407.2,207755.8 150746.7,207302.9 150624.3,206993 C 155957.6,205514.9 161290.9,201295.2 162660.9,198362.8 C 161168.6,199125.7 159138,198935 157743.5,198529.7 C 161560,197027.8 166428.5,194071.6 168605.8,189971.1 C 167871.9,190304.9 167113.5,190328.7 166477.4,190161.9 C 167578.3,187968.6 168336.7,185846.8 170196,183653.5 C 173082.8,180315.9 176165.4,176859.1 175455.9,171614.3 C 172715.9,174785 167529.4,176906.8 162734.3,176811.4 C 164936.1,175118.8 166428.5,172639.4 165939.2,169063.4 C 163125.7,172472.5 159994.3,173926.8 155982.1,173187.7 C 157596.7,171662 158575.3,169039.6 157670.1,167013.2 C 156300.1,169754.8 153976,170374.6 152043.3,170374.6 C 147492.9,170374.6 146025,168682 140006.7,162269 C 137633.6,159765.8 136288.1,155760.6 137291.1,152208.5 C 137804.9,150325.1 139272.8,147726.5 140300.3,145366.4 C 141303.3,148084.1 144385.9,153209.8 147174.8,156452 C 148667.2,158216.2 152997.4,161768.3 155982.1,162936.5 C 160508,164700.7 168532.4,163317.9 170783.2,161506.1 C 173694.4,159193.6 176777,155975.2 177021.6,149085.4 C 177168.4,144317.4 176434.5,137689.9 175455.9,134090 C 174526.2,130776.3 172936,123695.8 173082.8,121764.7 C 173254.1,119333 173645.5,117187.4 175407,114565 C 174526.2,119118.5 175211.2,124220.2 178514,127772.4 C 180275.4,129703.4 182966.5,131872.9 185021.5,134018.5 C 185706.6,134709.9 186880.9,136807.8 186856.4,138405.1 C 188226.4,136998.5 188666.8,135234.3 188079.6,132230.5 C 187516.9,129417.4 187957.3,126985.7 189156.1,124935.4 C 190575,122456.1 192679,118212.5 192189.7,113516 C 192018.4,111799.6 189938.9,108223.5 188520,107389.1 C 189914.5,107103.1 191896.1,105791.9 192776.8,104313.8 C 193804.3,102525.8 194856.3,98520.6 192850.2,94873.1 C 191920.6,93180.5 191308.9,90868 191308.9,89485.3 C 191308.9,88388.6 190672.9,86100 190648.4,85742.4 C 190403.8,83501.4 188715.7,80902.8 186831.9,79091 C 187492.5,83477.6 186513.9,87554.2 184140.8,90438.9 C 181841.1,93275.8 177217.3,97853.1 178514,103980 C 171394.8,104456.8 168116.5,111203.6 167162.4,113110.8 C 164446.8,118474.8 165694.5,125364.6 166819.9,129655.8 C 168043.1,134209.2 170122.6,142863.2 170269.4,145008.8 C 170709.8,151374.1 168459,155832.2 164618.1,156356.6 C 159089.1,157119.5 154954.6,154687.8 151896.5,150778.1 C 149083.1,147225.9 146000.5,139597.1 145413.4,135067.5 C 144948.6,131539.1 143407.3,124935.4 141474.6,122432.2 C 138392,118474.8 130123,113706.8 124594,111155.9 C 122074.2,107865.9 119603.2,104671.4 117425.9,101071.5 C 123297.4,107651.4 125572.6,109153.3 129315.7,108628.8 C 129315.7,108652.7 124667.4,96971 124667.4,96947.2 C 128386,102049 134330.9,109940 136532.7,111346.6 C 134575.6,108509.6 128483.9,100785.4 124863.1,95516.8 C 133645.9,106030.3 139126,109057.9 144703.9,107532.2 C 142966.9,106054.1 135407.4,95755.2 135407.4,95731.4 C 140765.1,101071.5 146979.1,107222.3 150599.9,109034.1 C 147370.5,105863.4 141548,100284.8 137168.8,95922.1 C 149254.3,106030.3 153193.1,107150.7 159480.5,103598.6 C 154514.2,99665 149450,95349.9 144703.9,90605.7 C 151382.7,95135.3 159823,100857 164030.9,102072.8 C 160238.9,99402.7 152312.4,94634.7 147077,91082.5 C 160630.4,97567 168092,98473 172006.4,92799 C 166844.4,91201.7 153902.6,83739.8 153902.6,83716 C 162024.8,86171.5 173963.5,90629.6 178293.8,90176.6 C 173963.5,89032.3 163052.3,85790 153902.6,82524 C 167920.8,85456.3 181180.6,87768.8 184091.9,78280.4 C 175088.9,76945.4 167431.5,74966.7 159284.8,72439.6 C 169315.3,72964.1 185951.2,73917.7 189865.5,72225 C 185021.5,72201.2 169290.8,72058.2 158355.1,71223.8 C 182281.5,68005.4 192385.4,65907.4 192042.9,52199.4 C 183333.5,54941 172838.2,56586 163419.3,57944.8 C 174428.4,54654.9 190697.3,49910.7 193388.4,47455.2 C 189205,48718.7 171810.7,54702.6 161144.1,57444.2 C 188764.6,46120.2 194318.1,42377.3 192874.7,30409.6 C 182110.3,35797.4 170587.4,39874.1 159284.8,43426.2 C 171810.7,37704.6 190452.7,28216.3 194000,24473.4 C 189767.7,26857.4 170293.9,37084.8 158257.3,42734.9 C 158086,42615.7 157914.8,42472.6 157743.5,42329.6 C 187468,27429.6 191700.4,23662.8 190085.7,11862 C 179884,17464.4 173596.6,20778.2 158135,26905.1 C 163468.2,23019.1 172422.3,17679 174379.4,15295 C 171443.7,16820.7 162122.7,23162.2 156177.8,26976.6 C 164030.9,18704.1 164030.9,16606.2 163517.2,9740.2 C 161095.2,13936.1 157768,17249.8 154122.8,20229.9 C 156569.2,16868.4 157939.2,13411.6 158037.1,9239.6 C 153657.9,17392.9 138367.6,27596.4 128483.9,30314.2 C 117915.2,33222.7 114636.9,43521.6 119480.9,53415.2 C 123297.4,61234.8 112997.8,72987.9 103358.8,71033 C 99542.3,70246.3 96777.8,70055.6 94429.2,70890 C 94209,68410.6 94282.4,63428.1 94869.5,61401.7 C 95285.4,62069.2 96361.9,62712.9 97683,62736.7 C 95212,59136.8 96557.6,52700 98563.7,46954.6 C 99199.8,47359.9 100105,47455.2 100863.4,47359.9 C 99371,44522.9 99224.2,42472.6 99933.7,39468.8 C 101230.3,33961.7 102013.2,28144.8 97805.3,21421.9 C 105046.8,19538.5 110722.6,16320.1 113511.6,10884.5 C 109768.5,14293.7 106147.7,13864.6 101915.3,12672.6 C 98343.5,11695.1 94942.9,12386.5 92447.5,13197 C 94037.7,12481.8 96288.5,11385.2 98661.6,7999.9 C 94576,9811.7 92056.1,9382.6 89413.9,9048.9 C 86404.8,8643.6 84765.7,8309.8 81927.8,9954.8 C 79383.5,8619.7 75248.9,8977.3 73463,10503.1 C 73193.9,10741.5 72533.4,10836.9 72166.4,10574.6 C 70478.3,9287.3 66710.8,9740.2 66221.5,12076.6 C 66197,12291.1 65389.7,12648.7 65218.5,12696.4 C 60790.4,13769.2 53940.3,17083 51983.1,26356.8 C 55970.8,22494.7 63628.3,22137.1 66759.7,22351.6 C 67909.6,22423.1 69034.9,22828.4 70038,24449.5 C 73022.7,23209.9 77499.7,25140.9 78282.6,27024.3 C 72680.2,24282.7 67640.5,25617.7 61548.8,28335.5 C 56582.5,30576.4 54698.7,31387 50711,29384.4 C 47799.7,27906.4 42637.6,27501.1 40533.7,30195 C 45230.9,28645.4 47848.6,29146 51126.9,31172.4 C 54380.7,33151.2 59028.9,33246.5 64068.6,30791 C 66368.3,29670.5 71456.9,29384.4 75102.2,30171.2 C 78527.2,30934 80435.4,32745.9 80435.4,33675.7 C 80435.4,34963 79432.4,35153.7 78307,34772.3 C 72093,32555.2 66368.3,30481.1 58808.7,35082.2 C 66808.7,35249.1 70086.9,36989.4 73683.2,39802.6 C 75077.7,40875.4 75224.5,42329.6 75151.1,43092.5 C 74930.9,45476.5 72264.3,48170.4 68668,49171.7 C 69450.8,50053.8 70967.6,50220.7 71995.2,50125.3 C 70380.5,52223.2 67713.9,54035.1 64655.8,54321.2 C 62307.2,54535.7 58588.6,56919.7 57316.4,59136.8 C 58637.5,58660 60961.6,58111.7 62576.3,58779.2 C 60521.3,59685.2 58833.2,60281.2 56362.3,60567.3 C 47261.5,51770.3 35812,38348.3 34588.8,31887.6 C 34050.6,28979.2 35518.5,25832.3 37279.9,23782 C 39922.1,24378 42270.7,20492.1 39750.8,18441.9 C 42344.1,15175.8 41756.9,10121.7 37010.8,10169.3 C 38062.8,11480.6 37867.1,13578.5 35812,15080.4 C 31971.1,11099.1 26980.3,16105.5 30894.6,19967.6 C 30160.7,21851 29500.2,23567.5 29035.3,27119.6 C 27176,25307.8 24900.8,22423.1 24558.3,18513.4 C 26515.5,16939.9 25952.8,12529.5 22136.3,13030.2 C 20913.1,8691.3 14674.6,6641 12081.4,11552.1 C 13745,11051.4 15163.9,12362.6 16167,15151.9 C 13818.4,16653.8 13011,23233.7 18980.4,22947.6 C 19396.3,24926.3 21059.9,28287.8 23506.3,30719.5 C 21867.2,30481.1 20717.4,30290.4 19127.2,29551.3 C 18760.2,24902.5 13451.4,24687.9 12277.1,28979.2 C 6527.9,29837.4 7090.6,37585.4 10907.1,39254.2 C 10319.9,37180.1 12056.9,35106.1 13378,35368.3 C 14968.2,40041 19910,40398.6 20790.8,36274.2 C 22087.4,36870.2 26026.2,37847.7 26515.5,39993.3 C 26760.1,41018.4 26173,42425 24974.2,43783.8 C 22014,43926.9 20741.8,48385 23995.6,49529.3 C 24020.1,51841.8 22992.6,52986.1 20717.4,53057.6 C 22870.3,55680 27176,55012.5 29573.6,51102.7 C 32313.6,50745.1 32900.7,47455.2 30821.3,45357.3 C 31090.4,44737.4 31335,44165.3 31481.8,43354.7 C 33169.9,47645.9 42197.3,60281.2 46258.4,67862.3 C 44521.4,69769.5 41756.9,71891.3 38894.6,71509.8 C 40558.2,72964.1 43983.2,74418.3 47799.7,71462.2 C 46013.8,73893.8 44766.1,77040.7 42099.4,79830 C 39726.4,82357.1 35078.1,83835.2 32020,80497.5 C 33903.8,86171.5 39579.6,86910.5 43640.7,84931.8 C 39041.4,93418.9 35102.6,100022.6 28154.6,94086.4 C 30062.9,98687.5 37231,100475.5 45573.4,94491.7 C 45010.7,100833.1 43787.5,104409.1 39457.3,105696.5 C 45769.1,106006.4 48655.9,98949.8 51126.9,97567 C 50857.8,103956.2 49659,107174.6 46600.9,109534.8 C 49903.6,109034.1 51689.5,105768 52399,105625 C 53328.7,105410.4 55236.9,104599.9 56460.1,103956.2 C 55530.5,105124.3 54674.2,105553.5 54356.2,105911.1 C 53133,107174.6 52496.9,108461.9 52643.7,110083.1 C 49805.8,112419.4 46870,114612.7 44325.7,116233.8 C 41732.5,117854.9 39310.5,118284.1 37524.6,116496.1 C 36252.4,115232.5 34662.2,113301.5 33585.8,110011.6 C 35591.8,107603.7 34442,103455.5 31848.8,103646.3 C 31261.6,101119.2 26270.8,98592.2 23237.2,102239.7 C 24754,102311.2 26026.2,103336.3 26148.5,104671.4 C 22503.3,107007.7 25194.4,113110.8 29328.9,112324 C 29108.7,114326.6 30185.2,116448.4 31090.4,117759.6 C 28913,117425.8 26026.2,116782.1 24460.5,115399.4 C 24778.5,110154.6 17659.3,107961.3 16582.9,112324 C 10050.8,112490.9 9512.6,118188.7 11445.3,121812.4 C 12179.2,119690.6 14283.2,119118.5 15506.4,119809.8 C 16069.1,124530.2 20692.9,124244.1 22136.3,122193.8 C 23579.7,123385.8 25977.3,123934.2 27543,123815 C 28986.4,125054.6 30307.5,124482.5 31702,124816.2 C 29475.7,125746 27004.8,128249.2 24460.5,128606.8 C 21598.1,125054.6 17023.2,126771.1 17928.4,130823.9 C 12815.3,134948.3 16240.4,141242 19225,141742.7 C 18491.1,140193.1 19518.6,137880.6 21157.7,137403.8 C 23653.1,140860.6 28766.2,138119 28081.2,134209.2 C 29255.5,134042.3 30062.9,133708.6 30894.6,132731.1 C 33414.5,133207.9 34906.8,132397.4 36105.6,130514 C 37549,131157.7 39873.2,130800.1 41316.6,130037.2 C 42588.7,131276.9 44497,131968.3 46062.7,132087.5 C 45279.8,136068.7 51396,137022.3 52741.5,135496.6 C 54331.7,136783.9 53279.7,140097.7 53769,139454 C 57879.1,138262 57585.5,131896.7 55726.2,130990.8 C 57071.8,127343.3 52447.9,124697 50221.7,126818.8 C 48851.7,126342 47457.2,125603 46209.5,123815 C 49487.7,122670.6 57536.6,118665.5 64215.4,115161 L 64215.4,115161 z "
     id="path1895"
     style="fill:#000000" /><path
     d="M 26613.3,105744 C 28497.1,106363.8 30013.9,106101.6 31065.9,104814.2 C 34539.9,104265.9 34221.8,108938.5 31604.1,110130.6 C 32166.8,110869.6 32338.1,109176.9 33047.5,111036.5 C 34588.8,114970.1 35494,115804.5 37133.1,117211.1 C 39653,119428.2 41292.1,119237.5 44325.7,117234.9 C 52668.1,111727.8 59347,105720.1 66882.1,99640.9 C 69450.8,97590.7 74294.8,94205.4 77548.6,93394.8 C 80753.5,92608.1 82759.6,93061.1 85426.2,94920.6 C 87774.8,96565.6 88435.4,100260.8 88117.3,103073.9 C 87970.5,104504.3 86576,105124.1 84251.9,105362.5 C 80117.4,105767.8 75664.8,107484.3 72533.4,109343.8 C 63139,114922.4 53328.7,119857.3 43469.4,124148.5 C 45279.8,125936.5 47408.2,127152.4 50050.4,128129.8 C 53035.1,126055.7 55481.6,128797.3 54429.6,130990.6 C 52961.7,131705.8 52056.5,132564.1 51762.9,133684.5 C 48533.6,135687.1 46185,133446.1 47946.5,129989.3 C 47188.1,130776.1 46576.4,130656.9 45377.7,130466.1 C 43885.3,130227.7 43078,129822.4 41390,128296.7 C 39506.2,129703.2 37573.5,129631.7 35567.4,128964.2 C 34442,130919.1 32998.6,131968.1 30943.6,131109.8 C 30087.3,132254.1 29304.4,132778.6 28448.2,132730.9 C 26955.8,132635.6 26735.7,130871.4 25585.8,131181.3 C 28374.8,136259.3 25341.2,139406.2 21769.4,136473.8 C 21720.4,133517.7 20741.8,131991.9 19274,131443.6 C 18344.3,127748.4 20815.2,126318 24362.6,129750.9 C 27836.6,128988 31530.7,126389.5 33561.3,124148.5 C 30894.6,124029.3 28937.5,123624 27689.8,122122.1 C 25536.9,123051.9 24118,122527.4 22796.9,120930.1 C 21989.5,119952.7 23286.2,119332.8 22381,118569.9 C 20937.6,122741.9 17292.3,123409.5 16558.4,119404.3 C 18026.3,117354.1 18491.1,115351.5 17659.3,112729.1 C 19225,109320 23848.8,112300 23310.6,116209.8 C 26270.8,118045.5 29622.5,118736.8 32949.7,118903.7 C 31530.7,116662.7 29891.6,114707.8 30136.2,111537.1 C 26540,112204.6 23628.7,107961.1 26613.3,105744 L 26613.3,105744 z M 45720.2,120334.1 C 50392.9,116448.2 56680.3,113372.8 61695.6,110106.7 C 66833.1,106721.4 73707.7,104194.4 78111.3,99736.3 C 76374.3,104289.7 67346.9,107460.5 62087,110821.9 C 56949.4,114135.7 51126.9,117163.4 45720.2,120334.1 L 45720.2,120334.1 z M 47065.7,67099.2 C 47775.2,66360.2 48509.1,65621.1 49267.6,64905.9 C 38625.5,48933.1 35004.7,42472.4 33634.7,38729.5 C 36741.7,41852.6 37182,46644.5 49928.1,64309.9 C 51249.2,63117.9 52619.2,62092.8 54111.5,61353.8 C 51396,58254.6 34955.8,39111 33561.3,31982.8 C 33194.3,30075.6 33634.7,27167.1 35151.5,24950 C 36448.1,23066.6 33977.2,23209.7 34784.5,21588.5 C 37842.6,24306.3 41316.6,21159.4 38894.6,18846.9 C 37304.4,18608.5 35494,17392.7 35151.5,15819.2 C 32338.1,13006.1 28203.5,16129.2 31922.2,19633.7 C 31726.4,20325 30062.9,25522.2 29573.6,29122 C 26515.5,26428.1 24729.6,23376.5 23824.4,20444.2 C 23139.4,18203.2 21891.7,21183.3 21280.1,19752.9 C 25634.8,17392.7 25610.3,13602.1 21867.2,14078.9 C 20692.9,15533.2 18637.9,16272.2 16656.3,16033.8 C 14478.9,18322.4 15800,22470.6 19665.4,21826.9 C 20277,24783.1 22796.9,29026.6 25732.6,31959 C 23237.2,31863.6 19151.6,31029.2 18368.8,30171 C 18001.8,26404.2 14503.4,25498.3 13255.7,29360.4 C 14185.3,30218.6 15702.1,32745.7 14723.6,34891.3 C 14821.4,37585.2 20766.3,40684.4 19420.8,33007.9 C 20619.5,33294 19787.7,34533.7 21451.3,35272.7 C 24313.7,36560.1 26711.2,37513.7 27225,39325.5 C 27787.6,41375.8 26662.3,43449.9 25610.3,44689.6 C 23017.1,44594.2 22111.9,47788.8 24118,48432.5 C 26148.5,48051 27763.2,49266.9 28374.8,50244.3 C 31946.6,50387.3 32068.9,46644.5 28032.3,44904.1 C 28619.4,43759.8 29182.1,45380.9 29842.7,44308.1 C 30380.9,43426 30772.3,41828.8 30796.8,39897.7 C 34270.8,47836.5 45475.5,64715.2 47065.7,67099.2 L 47065.7,67099.2 z M 54527.4,22995.1 C 56533.5,17941 61230.7,14555.7 66025.8,13626 C 67004.4,15294.8 68423.3,16963.6 69426.4,19752.9 C 69842.3,20897.2 69695.5,21302.5 68154.2,21159.4 C 63799.5,20754.1 58735.3,20754.1 54527.4,22995.1 z M 70625.1,10717.5 C 71261.2,10979.7 71041,11599.6 71041,12219.4 C 71016.6,14174.3 71799.4,16796.7 72264.3,18298.6 C 72631.2,19490.6 73512,20396.5 74784.1,21087.9 C 75322.3,21374 77940,23209.7 79163.3,24020.2 C 80215.3,24711.6 81047.1,26046.6 81389.6,27310.2 C 81756.5,28621.4 82563.9,32984.1 82637.2,34319.1 C 82710.6,35487.3 82294.7,36131 81340.6,36536.3 C 80900.3,36727 77915.6,37680.6 76545.6,38777.2 C 75689.3,39468.6 74882,39134.8 74270.4,38395.8 C 73389.6,37394.5 69279.6,33747 64166.5,33675.5 C 70038,32197.4 74319.3,34009.2 78111.3,35630.3 C 80019.5,36440.9 81658.7,35535 81560.8,33985.4 C 81511.9,32912.6 80655.6,28692.9 80166.3,27191 C 79603.6,25426.8 78258.1,24044.1 76912.5,23376.5 C 75077.7,22422.9 72875.9,22566 71334.6,22208.4 C 70453.9,21993.8 70307.1,21469.3 70331.6,20491.9 C 70356,18966.1 68252.1,15318.6 67420.3,13983.6 C 66906.5,13149.2 67004.4,11671.1 68056.4,10955.9 C 68692.4,10526.7 69719.9,10336 70625.1,10717.5 L 70625.1,10717.5 z "
     id="path1897"
     style="fill:#ffe000" /><path
     d="M 84790.1,10050.2 C 88141.8,8619.8 90465.9,10813.1 96068.3,9764.2 C 93817.6,11885.9 92031.6,12505.8 90392.5,12887.2 C 88875.7,11623.7 87016.4,10527 84790.1,10050.2 z M 44717.1,177455.2 C 47726.3,175857.9 47506.1,181436.5 43665.2,184106.6 C 45304.3,184821.8 45451.1,182557 46674.3,184249.6 C 48607,186943.6 52178.8,186943.6 54478.5,184607.2 C 55236.9,183820.5 57903.6,181961 59518.2,180959.7 C 61377.5,179791.5 66197,177645.9 70576.2,174403.7 C 72924.8,172639.5 71995.2,170851.5 71163.4,169397.3 C 70478.3,168205.3 70747.5,165964.3 71212.3,164390.8 C 72044.1,161506.2 71261.2,158240.1 69181.7,155689.2 C 68227.6,154521.1 67200.1,150539.8 67469.2,148513.4 C 67787.2,146034 68447.8,144627.4 70698.5,143387.7 C 72998.2,142124.2 73805.5,139907.1 74294.8,138381.3 C 75395.7,134972.2 80973.7,133065 84129.6,133303.4 C 87897.1,133589.5 90832.9,133327.2 94331.3,132993.5 C 99150.8,132516.7 104166.1,131277 109303.6,128630.7 C 114930.5,129202.9 116080.3,131634.6 117646.1,135997.3 C 107982.6,139501.8 100912.3,143769.2 97340.5,149228.6 C 94233.5,153996.6 92985.8,157644.1 94355.8,160648 C 92765.6,159813.6 90832.9,157834.8 89732,156642.8 C 92374.2,163341.9 89903.2,166464.9 95212,171828.9 C 93303.8,171948.1 91248.8,169802.5 89658.6,168062.2 C 92814.5,173044.8 91860.4,176382.4 96924.6,182461.6 C 94380.2,181508 93181.5,179791.5 92178.4,177479 C 92300.8,181126.6 95946,182437.8 97291.5,183939.7 C 94502.6,185608.5 89585.2,184702.6 87138.7,182890.7 C 87995,184297.3 89291.6,186490.6 90270.2,187134.3 C 89487.3,187563.4 89095.9,187968.7 86771.8,185346.3 C 87285.5,186872 88190.7,188111.7 88728.9,187778 C 84374.2,190185.8 76741.3,191306.3 74661.8,189089.2 C 74808.6,190519.6 75395.7,192140.7 76276.5,192736.7 C 74172.5,193594.9 70013.5,194572.4 67689.4,193618.8 C 66955.4,196551.1 65536.5,195573.7 64998.3,194548.5 C 64019.7,192689 60986.1,194643.9 61255.2,195716.7 C 61964.7,198506 59616.1,197194.8 59689.5,198744.4 C 60741.4,198506 61842.3,198410.6 62698.6,198720.5 C 65242.9,199602.6 65438.6,203393.2 63187.9,204323 C 61328.6,203011.8 58392.8,204370.6 58441.8,205586.5 C 55359.2,206873.8 53646.7,202225 56411.2,199578.8 C 55848.5,198792.1 55383.7,195716.7 55726.2,195382.9 C 54674.2,195001.5 53818,196384.2 53010.6,197981.5 C 52741.5,198506 51493.8,199698 50980.1,199507.3 C 50295.1,199268.9 48753.8,199721.8 48778.3,200603.9 C 48827.2,202582.6 47432.7,200818.5 46894.5,201915.1 C 51175.8,204680.6 48337.9,209496.3 44863.9,207827.5 C 44741.6,206420.9 41414.4,204442.2 40191.2,205038.2 C 37793.7,203131 39555.1,199888.7 43689.6,200198.6 C 43763,198267.6 45573.4,198148.4 45402.1,197242.5 C 45255.4,196431.9 44790.5,195382.9 44007.7,194810.8 C 43053.5,195788.2 41977.1,196431.9 40509.2,196479.6 C 38870.1,196527.3 39628.5,193213.5 37916,193380.4 C 40851.7,200246.3 32191.3,202058.2 31579.7,197385.5 C 33218.8,197051.7 32411.5,191258.6 30576.6,190162 C 30283,186299.9 34931.3,186633.6 36888.5,189303.7 C 38405.3,191330.1 42564.3,189256 43738.6,188350.1 C 43102.5,187897.2 42221.8,186490.6 42075,185608.5 C 37964.9,186800.5 35665.2,181484.2 38894.6,179076.3 C 41536.7,180101.5 43591.8,179767.7 44717.1,177455.2 L 44717.1,177455.2 z M 188422.1,83263.1 C 191088.8,87697.3 187541.4,91130.3 190990.9,95969.9 C 193217.2,99069.1 191039.8,105196 186954.2,106197.2 C 189987.9,104433.1 191553.6,100165.7 189841.1,96494.3 C 188201.9,92989.8 187590.3,91797.8 188838,86362.3 C 186660.7,91726.3 187247.8,92703.8 188764.6,95683.8 C 190599.5,99355.1 189547.5,103980.1 186880.9,105029.1 C 185070.5,105744.3 183749.4,105458.2 181963.5,104099.3 C 182354.9,104695.3 182746.3,105267.5 183162.2,105839.6 C 182819.7,106101.9 182477.2,106364.1 182159.2,106626.4 C 182550.6,107031.6 182942.1,107436.9 183333.5,107818.4 C 187150,108056.8 189865.5,110488.5 190061.2,116567.7 C 190257,122384.6 186269.2,122623 186122.4,127653.3 C 183724.9,122861.4 192997,117640.5 185902.3,111656.6 C 189400.7,115494.9 187565.9,119142.4 185853.3,123219.1 C 183162.2,129512.8 187761.6,130347.2 186880.9,134638.4 C 186024.6,133065 182257,130037.3 180104.2,128034.7 C 173107.3,121574.1 175945.2,111918.9 179957.4,110273.9 C 179247.9,111465.9 178783.1,112800.9 178514,114040.6 C 179199,113540 180764.7,110083.2 182770.8,109391.8 C 175749.5,106769.4 168630.3,113325.4 171492.6,124983.2 C 173131.8,131658.4 175871.8,140956.1 175871.8,145199.6 C 175871.8,157071.9 171981.9,162269.1 163223.6,162388.3 C 155639.6,162483.6 152850.6,159980.4 147835.4,154711.8 C 144850.7,151541.1 142966.9,148060.4 141254.4,143483.1 C 142918,139597.2 142110.7,132945.8 140153.5,130776.4 C 141792.6,137332.4 140618.3,141695.1 138367.6,146057.8 C 135994.5,150635.1 134037.3,157381.9 137707,161577.7 C 140544.9,164867.6 143407.3,168133.7 147443.9,170493.9 C 150110.6,172067.4 154367.4,171614.4 157107.4,169516.5 C 156618.2,171280.6 155468.3,172544.2 154171.7,173473.9 C 157743.5,174713.6 162000.4,174022.2 165082.9,171519 C 164495.8,174213 162538.6,176525.4 160141.1,177741.3 C 165816.8,178027.4 170685.3,176787.7 174403.9,174117.6 C 172960.5,176692.3 169413.1,178599.5 164862.7,179147.9 C 167382.6,179100.2 170978.9,179243.2 172715.9,177645.9 C 167015.6,184535.7 166819.9,188159.4 164520.2,191020.2 C 165034,191020.2 165547.7,191020.2 166086,191044 C 164275.6,192998.9 161437.7,193642.6 158159.4,193761.8 C 159382.7,194119.4 160777.1,194310.1 162465.2,194071.7 C 160752.7,195597.5 158183.9,197218.6 154440.8,198982.8 C 155908.7,199912.5 157401,200413.2 158917.8,200460.9 C 156789.4,203178.6 152997.4,204966.6 148275.7,206277.8 C 148618.2,206897.7 149205.4,207422.2 149596.8,207732.1 C 148324.7,208280.4 146954.6,209114.8 145609.1,209329.4 C 144410.3,209520.1 143138.2,208566.5 141988.3,208876.4 C 140031.2,209400.9 138514.4,212380.9 139933.3,214359.6 C 143187.1,213382.2 144948.6,216433.7 143480.7,218269.4 C 140642.8,218245.6 139615.3,219080 138783.5,222179.2 C 136190.2,224682.4 131346.2,221535.5 135652,217220.4 C 134697.9,216600.6 133890.6,215623.2 133205.5,214312 C 131860,217387.3 129731.6,218507.8 128043.5,216815.2 C 127309.6,217649.6 126477.8,217983.3 125866.2,218507.8 C 124887.6,219366 123811.1,217888 123370.8,218507.8 C 127260.7,221177.9 124716.3,226684.9 121462.5,225302.2 C 120190.4,222012.3 118135.4,220057.4 115762.3,219962 C 113218,217816.4 117377,214669.6 122025.2,217530.4 C 122441.1,217029.7 121095.6,217148.9 122049.7,215790 C 122734.7,214812.6 123713.3,213596.7 124447.2,212619.3 C 123370.8,212738.5 122049.7,213334.5 121022.2,213263 C 119896.8,213191.5 118624.7,212786.2 117670.5,212237.9 C 116740.9,211713.4 117254.6,210735.9 116643,210592.9 C 114832.6,217101.2 110404.6,216052.3 110086.5,212380.9 C 111554.4,211117.4 111432.1,205681.8 110306.7,204775.9 C 111994.8,201414.5 118869.3,202701.8 116373.9,208065.9 C 117254.6,208351.9 117107.9,206945.4 117548.2,207088.4 C 119799,207899 123126.1,207827.5 123639.9,204823.6 C 118747,203345.5 117792.9,198815.9 120435,197528.5 C 122514.5,198649 125792.8,197933.8 126551.2,195430.6 C 129389.1,194524.7 130587.8,200675.4 125939.6,202487.3 C 126428.9,203583.9 127701,202487.3 128190.3,202964.1 C 129902.8,204585.2 131737.7,203417 132227,201986.6 C 133401.3,198577.5 136190.2,195764.4 138587.8,193070.5 C 139395.1,192164.5 140447.1,190614.9 141083.1,189518.3 C 141841.5,188207.1 141425.6,187205.8 140275.8,186681.3 C 137364.5,185346.3 137486.9,185441.6 134012.9,181293.5 C 133083.2,180196.8 131908.9,179577 130171.9,179028.7 C 125132.2,177431.4 119383.1,174522.9 115958,172067.4 C 114025.3,170684.6 113927.5,170279.3 113511.6,167966.9 C 112948.9,164891.5 114025.3,163890.2 114074.2,160862.5 C 114123.2,158311.6 113609.4,155617.7 114049.8,153114.5 C 114612.5,149943.8 115468.7,148632.6 117866.3,146200.9 C 120214.9,143840.7 122832.6,140193.2 124104.7,136664.8 C 125083.3,133899.4 125230.1,130704.8 124496.2,127915.5 C 123639.9,124697.1 122563.5,121788.6 120532.9,118689.4 C 108692,118236.5 105634,115471 98686,109487.2 C 102257.8,114779.7 110429,120048.3 117890.7,121431 C 120459.5,121907.8 122832.6,125126.3 122808.1,127772.5 C 122759.2,131396.2 120532.9,131586.9 119040.6,130681 C 114930.5,128249.3 109279.2,126365.9 105315.9,126056 C 98490.3,125531.5 76692.4,127224.2 78062.4,119237.8 C 77377.4,120429.8 76349.8,122384.6 76349.8,123672 C 75371.3,122789.9 74245.9,120692 74833,118832.5 C 74270.4,119118.6 73389.6,120239 72117.5,119857.6 C 72239.8,118927.8 73438.6,119047 73830,117998.1 C 71848.4,118713.3 70576.2,119690.7 70307.1,120715.8 C 69744.4,120310.6 70698.5,117545.1 69573.2,116520 C 68643.5,119285.4 66050.3,119047 65609.9,120692 C 65194,118212.6 66319.4,114565.1 72704.6,110440.8 C 74833,109058 80777.9,107580 82539.4,107484.6 C 84276.4,107413.1 85866.6,107413.1 87407.8,106840.9 C 89316.1,106125.7 89780.9,105172.1 89732,103121.9 C 89658.6,100523.3 87897.1,97352.6 87358.9,96208.3 C 86625,94611 82784,94086.5 79750.4,93752.7 C 76716.8,93419 72484.4,94253.4 67762.8,97209.5 C 66074.7,98282.3 60080.9,103932.4 53793.5,109177.2 C 53548.9,107222.4 54943.3,106316.4 56509.1,105267.5 C 57658.9,104504.6 58662,103336.4 59371.4,101715.3 C 58295,101381.5 57732.3,101763 57291.9,102120.6 C 56337.8,102907.3 53866.9,104099.3 51885.3,104600 C 52863.8,102406.7 54209.4,101691.5 55334.8,101310 C 57022.8,100737.9 58710.9,99569.7 58392.8,97662.5 C 57561,99092.9 56778.2,100141.9 55065.7,100690.2 C 53695.6,101119.3 52276.7,102406.7 51224.7,103574.8 C 51787.4,97996.3 51934.2,96923.5 56240,94372.6 C 54796.5,92060.1 51224.7,94444.1 48949.5,96041.4 C 50026,93609.7 52129.9,91392.6 55481.6,91940.9 C 52790.5,90629.7 51102.4,92060.1 49463.3,93776.6 C 48337.9,94944.7 47359.3,97853.2 45059.6,102168.3 C 46674.3,91368.7 49316.5,89223.1 54233.9,86672.2 C 50686.5,83811.4 46723.2,92083.9 44594.8,93347.4 C 46160.5,90367.4 48827.2,85051.1 51885.3,84192.9 C 48044.3,83978.3 46429.7,88960.9 43983.2,92846.8 C 42295.1,95540.7 39481.7,97567.1 34882.4,97114.2 C 41928.2,92989.8 43029.1,86362.3 45744.7,84121.3 C 46919,83167.7 51053.5,79496.4 53377.6,78232.8 C 49732.4,76397.2 46919,81427.4 44178.9,83477.7 C 47359.3,79925.5 49438.8,75610.4 56337.8,75753.5 C 53181.9,74680.7 49781.3,76325.6 47359.3,79043.4 C 45010.7,81713.5 41536.7,85313.3 36986.3,83215.4 C 40704.9,83430 43958.7,79258 46625.4,74585.3 C 47530.6,72988 49683.4,71271.5 51347,71200 C 53181.9,71104.7 55848.5,70246.4 56337.8,68077 C 53475.5,67767.1 51102.4,69316.7 48460.2,69936.5 C 49659,68506.1 52496.9,66741.9 56509.1,66408.2 C 59273.6,66193.6 63285.8,66217.4 64680.2,63905 C 62331.6,65406.9 59298,65883.7 56337.8,65979 C 53353.1,66074.4 50417.4,67123.4 48509.1,68839.9 C 46405.2,70747.1 45646.8,72320.5 41610.1,72105.9 C 44448,71176.2 47799.7,67743.2 50319.5,64930.1 C 51249.2,63905 54649.8,61997.8 58588.6,61425.6 C 61940.2,60948.8 65487.6,59065.4 67958.5,57658.9 C 65536.5,57515.8 63090,57372.8 60643.6,57205.9 C 62429.5,55179.5 64337.7,54917.3 66564,54583.5 C 70845.3,53892.1 72239.8,50244.6 74808.6,48695 C 74221.4,48790.4 73585.4,48766.5 72949.3,48528.1 C 75126.6,46787.8 77034.9,43259.5 75885,40303.3 C 78013.4,38181.5 81365.1,37514 82588.3,36727.3 C 83566.9,36131.3 83738.2,35463.8 83591.4,34081 C 83346.7,31577.8 82490.5,28907.7 81976.7,26452.2 C 81585.3,24664.2 80998.1,24115.9 79628.1,23233.8 C 78209.2,22351.7 76741.3,21469.6 75077.7,20516 C 73487.5,19610.1 73145,18513.5 72729.1,17416.8 C 72239.8,16153.3 71799.4,14269.9 72044.1,12529.6 C 72239.8,11146.9 73071.6,12744.2 73707.7,11909.8 C 75322.3,9716.5 78576.1,9358.9 81536.3,10622.4 C 81976.7,10789.3 81952.2,10717.8 82563.9,10693.9 C 85059.2,10550.9 87995,11766.7 90465.9,13936.2 C 88826.8,14699.1 87163.2,14031.5 86698.4,15152 C 87848.2,15152 89169.3,15390.4 90245.7,14913.6 C 93964.4,13173.3 97756.4,12458.1 101597.3,13292.5 C 105022.3,14055.4 107150.8,14770.6 110233.3,13936.2 C 106123.3,17202.3 101572.8,21088.2 91297.7,20921.3 C 89732,20897.5 89707.5,20611.4 89438.4,20158.4 C 88410.9,18322.7 86404.8,18108.2 85303.9,18799.6 C 86698.4,19014.1 87774.8,19419.4 88484.3,20563.7 C 89952.2,22852.4 93744.2,22256.4 96092.8,21851.1 C 100056,26571.4 99493.3,32793.7 98563.7,37871.6 C 98172.3,40112.6 97756.4,42639.6 98490.3,44832.9 C 97805.3,44499.1 97193.7,44093.9 96728.9,43378.7 C 96802.2,46024.9 97585.1,46764 97144.7,48265.9 C 95946,52151.8 94796.1,56276.1 95652.4,60281.3 C 95016.3,60019 94355.8,59566.1 93891,59089.3 C 92349.7,63022.9 92765.6,67242.6 93328.3,71223.9 C 91787,71819.9 91273.2,67266.4 91297.7,65049.3 C 90514.8,67385.6 90906.3,69817.3 91420,71962.9 C 89242.7,72988 86967.5,74203.9 85303.9,75920.4 C 91615.8,72606.6 96606.5,73441 103187.5,74799.9 C 112606.4,76778.6 130220.9,70532.5 127652.1,57825.7 C 123126.1,53200.8 121535.9,36012.1 133376.8,33032.1 C 144679.4,30195.1 154024.9,22447.1 162538.6,13626.3 C 163761.8,21064.4 153731.3,27548.9 146416.4,32889 C 165694.5,25069.5 179247.9,19133.3 188642.3,14031.5 C 190036.8,25760.9 180275.4,30123.6 156520.3,41757.5 C 155370.5,41209.2 154318.5,40732.4 153119.7,40327.1 C 154416.3,38920.6 155884.2,37561.7 156398,35654.5 C 155321.5,34843.9 153829.2,34319.4 152532.6,33938 C 162905.6,29742.1 179052.2,23782.1 183945.1,19729.3 C 177804.5,23043.1 160605.9,29694.5 149058.6,34319.4 C 151064.7,34581.7 153242,34915.4 154612.1,35916.7 C 153682.4,37847.8 151823.1,39373.5 149719.1,40064.9 C 148422.5,39349.7 147003.6,39111.3 145609.1,38944.4 C 145804.8,38753.7 146025,38467.6 146220.7,38253 C 147101.4,38181.5 147982.2,37823.9 148838.4,37537.8 C 148226.8,37514 147297.2,37633.2 146685.5,37657 C 147297.2,36965.7 148080,35940.6 148471.5,34963.1 C 146636.6,34224.1 144630.5,33651.9 142673.3,33532.7 C 144116.8,34176.4 145682.5,34581.7 147052.5,35416.1 C 145853.7,37156.4 143970,38801.4 141939.4,39635.8 C 144214.6,39611.9 146538.7,39588.1 148691.6,40517.9 C 147933.2,42973.4 145878.2,43521.7 144336.9,44689.9 C 146612.1,44570.7 148569.3,42973.4 149694.7,41113.9 C 152752.8,40994.7 155639.6,42019.8 158086,44117.7 C 156960.7,46311 153315.4,48027.5 150771.1,48933.4 C 149229.9,47812.9 147468.4,46740.1 145584.6,46048.7 C 147517.3,45571.9 150257.4,45190.5 151554,44618.3 C 150037.2,44523 147272.7,45095.1 145070.9,45262 C 144973,45619.6 144728.4,46001.1 144630.5,46334.8 C 146440.9,47288.4 148275.7,48051.3 149841.5,49386.4 C 148618.2,50626 146734.5,51579.6 145070.9,52104.1 C 145266.6,52580.9 145584.6,52986.2 145804.8,53439.2 C 148153.4,53153.1 151651.8,52890.8 152777.2,52509.4 C 151578.5,52223.3 148593.8,52485.6 146538.7,52437.9 C 148006.6,51841.9 149645.8,50936 150820.1,49600.9 C 153217.6,50030 156300.1,50888.3 157719.1,52724 C 155859.8,55704 153119.7,56395.3 149963.8,57277.4 C 148862.9,55990.1 147443.9,55394.1 146073.9,54821.9 C 146073.9,54964.9 146073.9,55108 146098.4,55251 C 147199.3,55966.2 148324.7,56562.2 149205.4,57825.7 C 147957.7,59303.8 147125.9,59470.7 144948.6,59542.2 C 144899.6,59732.9 144850.7,59899.8 144801.8,60066.7 C 145853.7,60257.4 147003.6,60281.3 147957.7,60019 C 148031.1,60257.4 148080,60352.8 148177.9,60567.4 C 150208.4,60543.5 153560.1,60901.1 154367.4,60591.2 C 153437.8,60329 150110.6,60042.9 148349.1,59876 C 149034.1,59446.9 149865.9,58803.2 150330.8,58064.1 C 154416.3,57420.5 158183.9,57754.2 160336.8,61497.1 C 159113.5,64048 154196.2,65430.7 150404.2,65049.3 C 149205.4,63499.7 148373.6,62331.5 146856.8,61640.2 C 147664.1,62617.6 148862.9,63881.1 149278.8,64930.1 C 147957.7,65359.2 146465.4,65216.2 144973,64930.1 C 146710,65836 147933.2,66098.2 149768.1,65573.8 C 152557,66002.9 155492.8,67671.7 156838.3,70174.9 C 154269.6,72225.1 149988.3,72344.3 146392,71676.8 C 145633.6,70079.5 144459.3,67624 143480.7,67290.2 C 143970,68529.9 144850.7,69745.8 145070.9,71080.8 C 142918,71319.2 141670.3,70461 140887.4,70437.1 C 141866,71557.6 144997.5,71867.5 145437.8,72201.3 C 147370.5,73703.2 149107.5,74680.7 150869,77470 C 147639.7,79925.5 143627.5,80235.4 139957.8,78781.2 C 139786.5,77088.5 138832.4,75086 137707,74251.5 C 138074,75658.1 139101.5,76754.8 138930.3,78566.6 C 138000.6,78471.2 137046.5,77970.6 136141.3,77732.2 C 136361.5,78447.4 138710.1,79353.3 138979.2,79591.7 C 140300.3,80688.4 141132.1,83430 141548,85837.8 C 138318.6,87077.5 137022,85933.2 131590.9,82905.5 C 133009.8,86290.8 132814.1,88865.5 132373.8,91058.8 C 130000.7,90558.2 128704.1,88746.3 127652.1,86672.2 C 127921.2,85718.6 127970.1,84526.6 127823.3,83334.6 C 128410.5,84288.2 129217.8,86052.4 129902.8,86314.6 C 129853.9,85742.5 128581.7,83310.8 127994.6,81665.8 C 127676.6,81832.7 127187.3,81808.9 126893.7,81951.9 C 126991.5,82977 127260.7,84693.5 126918.1,85718.6 C 125425.8,85289.5 122710.2,82690.9 122025.2,82547.9 C 122269.9,83143.9 124740.8,85408.7 126208.7,86529.2 C 126600.1,89103.9 126282.1,91774 124912.1,93466.6 C 122636.8,93132.9 121120,91654.8 119627.7,89795.3 C 119872.3,88245.7 119750,86839.1 119505.4,85337.2 C 119285.2,85337.2 119040.6,85146.5 118844.8,85146.5 C 119113.9,86505.3 119138.4,87840.4 118795.9,88984.7 C 117597.1,89080.1 116618.6,87315.9 115664.4,87125.2 C 115664.4,87578.1 117010,89151.6 118208.8,90033.7 C 118135.4,91559.4 117939.6,93204.4 117401.4,94444.1 C 114832.6,93800.4 112948.9,91869.4 111334.2,89127.8 C 111432.1,87864.2 111211.9,85361 110918.3,85218 C 110575.8,85909.3 110942.8,88007.3 110331.2,88603.3 C 109059,88460.2 107982.6,86767.6 107224.2,86648.4 C 107419.9,87578.1 109499.4,89556.9 110453.5,89723.8 C 110551.3,91249.5 110649.2,93085.2 110086.5,94324.9 C 107126.3,94706.3 104557.5,91535.6 103358.8,88579.4 C 104141.6,87864.2 104043.8,84979.6 103750.2,84788.9 C 103432.1,85146.5 103505.5,87196.7 103065.2,87268.2 C 102135.5,87220.5 100790,85051.1 99982.6,83739.9 C 99444.4,83787.6 99004.1,83501.5 98563.7,83143.9 C 98759.4,84717.3 99713.5,87077.5 100202.8,87196.7 C 100202.8,86719.9 99493.3,85575.6 99664.6,84550.5 C 99958.2,84741.2 101205.9,87101.3 102796.1,88317.2 C 102796.1,89938.3 102527,91559.4 102062.1,92632.2 C 99420,92370 97364.9,89556.9 96386.3,86553 C 97511.7,85456.4 97193.7,83382.3 96998,83072.4 C 96679.9,83501.5 96777.8,85265.7 96239.6,85718.6 C 95334.4,85623.3 94820.6,84598.1 94111.1,84026 C 93988.8,84407.4 95016.3,86028.5 95750.3,86457.7 C 95579,87840.4 95187.6,89103.9 94527,89938.3 C 92545.4,89676.1 90979.7,86958.3 89536.3,84931.9 C 89267.2,85098.8 88973.6,85265.7 88655.5,85194.1 C 88533.2,85766.3 88264.1,86457.7 87946.1,86767.6 C 85719.8,86147.7 84227.4,81856.5 83591.4,82023.4 C 83518,82452.5 85988.9,86982.1 87677,87578.1 C 88680,90462.8 91224.3,95612.3 94184.5,95659.9 C 93670.8,94158 93377.2,91154.2 93352.7,90582 C 93646.3,90725 94013.3,90963.4 94355.8,91035 C 95138.7,93538.2 96386.3,98496.9 96728.9,98663.8 C 96900.1,98306.2 95089.7,91416.4 95187.6,90582 C 95285.4,90605.8 95627.9,90105.2 95774.7,89771.4 C 97780.8,99474.3 101132.5,103503.3 104777.7,103384.1 C 104557.5,102931.2 104190.5,101739.1 103994.8,101190.8 C 110208.8,105410.5 117156.8,109248.8 124031.3,112586.4 C 128141.4,114565.1 132324.8,116853.8 135847.7,119738.4 C 140275.8,123409.8 141670.3,126079.9 142599.9,130871.7 C 144581.6,140979.9 147003.6,146153.2 151896.5,152232.4 C 154563.1,155570 159529.4,157811 163859.7,157429.5 C 168605.8,157000.4 171957.5,151612.6 171174.6,144365.2 C 170514,138190.6 168018.7,131610.8 166942.2,126246.7 C 164104.3,111942.7 173792.3,103908.6 179492.5,104909.9 C 178660.8,102597.4 178562.9,99927.3 180055.2,97519.5 C 180030.8,98187 179932.9,98830.7 179981.8,99474.3 C 182036.9,93180.6 187174.4,89056.2 188422.1,83263.1 L 188422.1,83263.1 z M 105952,15128.2 C 104190.5,14842.1 102600.4,15533.5 101181.4,15557.3 C 99958.2,15581.1 98441.4,15366.6 97291.5,15414.3 C 88900.2,15843.4 88313,18608.8 93450.6,19085.6 C 93205.9,16940 95848.1,17702.9 97805.3,15986.4 C 100838.9,16224.8 103383.2,16296.3 105952,15128.2 z M 158820,44761.4 C 170244.9,41209.2 180984.9,37180.2 191186.6,32603 C 194513.8,43569.4 179908.4,48742.7 157865.9,57849.6 C 157058.5,57348.9 155933.1,57015.2 154930.1,56872.1 C 156838.3,55847 158453,54416.6 159089.1,52557.1 C 158183.9,51365.1 156471.4,50363.8 154587.6,49553.2 C 165939.2,46001.1 184630.1,39588.1 186440.5,37561.7 C 183627.1,38396.1 167309.2,45190.5 155835.3,48075.2 C 157009.6,47193.1 158501.9,45738.8 158820,44761.4 L 158820,44761.4 z M 159847.5,59256.1 C 170171.5,57778.1 180617.9,56085.4 190501.6,53653.7 C 190036.8,65573.8 182232.6,67171 158208.4,70270.3 C 157278.7,68529.9 155884.2,66885 154147.2,66074.4 C 156667.1,65573.8 158868.9,65001.6 160043.2,64000.3 C 168728.1,62689.1 183602.6,59685.3 184899.2,58493.3 C 182599.5,58493.3 169095.1,61830.9 161242,62951.4 C 161437.7,62593.8 161633.4,62260 161853.6,61926.2 C 161413.2,60948.8 160605.9,60042.9 159847.5,59256.1 L 159847.5,59256.1 z M 155346,72415.9 C 166012.6,75682 176067.5,78089.8 182281.5,79114.9 C 178660.8,86529.2 165058.4,84955.7 148765,80259.2 C 149865.9,79782.4 151627.4,78924.2 152165.6,78042.1 C 151872,76707.1 151064.7,75562.8 150037.2,74513.8 C 161046.2,78185.2 170783.2,80998.3 172764.8,79806.3 C 170244.9,79567.9 162245,78018.3 149694.7,73107.2 C 152752.8,73345.6 153976,73059.5 155346,72415.9 L 155346,72415.9 z M 145291.1,66646.6 C 149474.5,67814.7 151823.1,68482.3 152190.1,69054.4 C 151554,69125.9 149278.8,68506.1 145119.8,67075.7 C 145193.2,66932.6 145242.1,66789.6 145291.1,66646.6 z M 139468.5,72916.5 C 144385.9,75586.6 146587.7,75658.1 146905.7,76158.8 C 146196.2,76421 143309.4,75348.2 139297.2,73488.7 C 139370.6,73297.9 139419.6,73107.2 139468.5,72916.5 z M 146832.3,81022.1 C 157670.1,87125.2 166501.9,91893.2 169878,92966 C 163664,99164.4 152630.4,93514.3 141792.6,86862.9 C 142110.7,86648.4 142648.9,86529.2 142942.5,86338.5 C 142966.9,85480.2 142379.8,83477.7 141792.6,81785 C 151260.4,87745 158501.9,91917 159774.1,91321 C 158379.6,90224.4 152679.4,87864.2 142159.6,80616.8 C 143896.6,81022.1 145853.7,81236.7 146832.3,81022.1 L 146832.3,81022.1 z M 139982.2,87292.1 C 145878.2,92656.1 151725.2,97853.2 157621.2,103241.1 C 153682.4,107007.8 144679.4,102239.8 133548.1,91583.3 C 134086.3,90081.4 133890.6,87935.7 133645.9,85623.3 C 140960.8,93037.5 147664.1,99331.3 150722.2,100666.3 C 149278.8,98902.2 143089.2,94086.5 136190.2,86505.3 C 137756,87196.7 138979.2,87363.6 139982.2,87292.1 L 139982.2,87292.1 z M 133964,78685.8 C 135309.5,80378.4 136973.1,81427.4 136997.6,81928.1 C 136165.8,81832.7 135040.4,80902.9 133719.3,79448.7 C 133817.2,79186.4 133890.6,78924.2 133964,78685.8 L 133964,78685.8 z M 131762.1,77708.4 C 132667.3,78900.4 133254.5,80616.8 132716.3,81618.1 C 131175,82094.9 130367.7,80998.3 129266.8,80497.6 C 130147.5,80283.1 131028.2,81117.5 132080.2,80759.9 C 132300.4,80044.7 131737.7,78709.6 131762.1,77708.4 z M 131957.9,92393.8 C 135774.3,98115.5 139737.6,103384.1 143089.2,107031.6 C 138049.5,108104.4 131272.8,102549.7 125890.6,94706.3 C 126526.7,93681.2 127162.8,92441.5 127701,90582 C 131199.5,96399 134379.8,101453.1 136239.2,102621.2 C 135554.1,100976.3 131835.5,96589.7 129193.4,90510.5 C 130392.1,91583.3 131321.8,92036.2 131957.9,92393.8 z M 122710.2,94158 C 124716.3,99593.5 126624.6,104361.6 127994.6,107556.1 C 124129.2,107961.4 119113.9,102478.2 114612.5,94634.8 C 115737.8,95302.3 117058.9,95898.3 118355.5,96017.5 C 118600.2,95516.9 118820.4,94539.4 118967.2,93895.8 C 120948.8,98687.6 123052.7,102549.7 124398.3,103789.4 C 124202.6,102287.5 121046.6,97495.6 119260.7,92393.8 C 119309.7,92036.2 119358.6,91464.1 119383.1,91082.6 C 120410.6,92179.3 121927.4,93776.6 122710.2,94158 L 122710.2,94158 z M 121095.6,83906.8 C 121707.2,86243.1 122490.1,87959.6 122392.2,88460.2 C 121854,88054.9 121095.6,86457.7 120263.8,84073.7 C 120557.4,84002.1 120826.5,83954.5 121095.6,83906.8 L 121095.6,83906.8 z M 114074.2,85480.2 C 114612.5,87482.8 115468.7,89103.9 115419.8,89699.9 C 114906,89223.1 114123.2,87625.8 113291.4,85527.9 C 113560.5,85504.1 113829.6,85480.2 114074.2,85480.2 L 114074.2,85480.2 z M 106294.5,85599.4 C 106637,87530.5 107322,88913.2 107297.6,89628.4 C 106881.7,89390 106392.4,88054.9 105731.8,85647.1 C 105927.5,85623.3 106123.3,85599.4 106294.5,85599.4 z M 92643.3,82786.3 C 92741.1,83763.7 93059.2,85289.5 93034.7,85766.3 C 92667.7,85170.3 92374.2,84073.7 92129.5,82667.1 C 92300.8,82714.8 92472,82762.5 92643.3,82786.3 z M 91420,81999.6 C 91420,82929.3 91420,83716.1 91126.5,84335.9 C 89756.4,84383.6 88435.4,83334.6 87921.6,82023.4 C 88900.2,82786.3 89878.8,83668.4 90539.3,83668.4 C 91077.5,83310.8 91248.8,82571.7 91420,81999.6 z M 86527.1,78995.7 C 86649.4,79591.7 86625,80140 86429.3,80616.8 C 86625,81737.3 86967.5,82810.1 87310,83787.6 C 86820.7,83334.6 86331.4,82238 85719.8,80259.2 C 85181.6,79949.3 84912.5,78518.9 84643.3,77279.2 C 85034.8,78232.8 85548.5,79162.6 86013.4,79496.4 C 86209.1,79401 86380.3,79234.1 86527.1,78995.7 L 86527.1,78995.7 z M 89340.5,86028.5 C 90661.6,87983.4 91591.3,89103.9 92569.9,89962.2 C 92520.9,91344.9 92716.7,92870.6 92936.8,94181.8 C 91297.7,94062.6 89634.1,91249.5 88508.7,87482.8 C 88777.9,87125.2 89071.4,86648.4 89340.5,86028.5 L 89340.5,86028.5 z M 103285.4,92417.7 C 105756.3,97161.9 108129.3,101476.9 109817.4,103503.3 L 107322,101834.5 L 103065.2,93395.1 L 103285.4,92417.7 L 103285.4,92417.7 z M 111334.2,93514.3 C 113731.7,99808.1 116325,105958.8 117205.7,107508.4 C 111799,106650.2 107982.6,100213.4 104826.6,92942.2 C 106539.1,94277.2 108227.2,95254.7 109621.7,95373.9 C 110991.7,98735.3 112117.1,101143.1 113266.9,102168.3 C 112361.7,99998.8 111481,97591 110575.8,95397.7 C 111016.2,94992.4 111236.3,94134.2 111334.2,93514.3 L 111334.2,93514.3 z M 102551.4,93919.6 L 106490.2,101524.6 L 103750.2,99903.5 C 103750.2,99903.5 102062.1,93895.8 102062.1,93895.8 L 102551.4,93919.6 z M 101352.7,93824.2 C 102013.2,96565.9 102673.7,99450.5 103358.8,102192.1 C 100985.7,101834.5 98147.8,97662.5 96435.3,89056.2 C 97413.9,90200.6 99077.5,92107.8 100056,93228.2 C 100276.2,94706.3 100594.3,95230.8 101059.1,96279.8 C 100936.8,95469.2 100887.8,94396.4 100765.5,93585.8 C 100961.2,93728.9 101156.9,93705 101352.7,93824.2 z M 94184.5,48146.7 C 95383.3,51460.4 92472,53868.3 93719.7,57944.9 C 91835.9,54059 94404.7,51627.3 94184.5,48146.7 z M 79432.4,60042.9 C 78037.9,63094.4 76374.3,62045.4 74466.1,63189.8 C 76814.7,61306.4 75053.2,56609.9 79701.5,53129.2 C 79872.7,53868.3 76398.8,55584.8 76374.3,61830.9 C 77964.5,62140.8 78747.4,59828.3 79432.4,60042.9 z M 75273.4,53701.4 C 72582.3,56300 71505.9,56609.9 67664.9,56752.9 C 70356,56133.1 72949.3,55131.8 75273.4,53701.4 z M 69328.5,71104.7 C 66001.3,75753.5 61402,74776 58759.8,75157.5 C 60814.8,73464.8 60668,70723.2 65145.1,68220 C 65242.9,69102.1 61279.7,70747.1 61083.9,74013.1 C 65291.9,75109.8 68668,70794.7 69328.5,71104.7 L 69328.5,71104.7 z M 67713.9,87816.5 C 67102.2,89390 65903.5,90605.8 64190.9,91130.3 C 62429.5,91654.8 61450.9,93562 60056.4,94777.8 C 60668,90582 60203.2,89103.9 63408.1,87101.3 C 63334.7,87888.1 60496.8,89056.2 61059.5,92703.8 C 62087,92465.4 62258.2,90844.2 64044.2,90558.2 C 66074.7,90224.4 67028.8,88126.5 67713.9,87816.5 z M 68105.3,95874.5 C 66441.7,96613.5 66001.3,97185.7 64778.1,97352.6 C 67395.8,95397.7 67616,91702.5 70649.6,90891.9 C 68521.2,92465.4 68178.7,93967.3 67053.3,95612.3 C 67346.9,95826.8 67762.8,95898.3 68105.3,95874.5 z M 96851.2,27954.1 C 98074.4,30290.5 97609.6,32769.8 97267.1,35058.5 C 96973.5,37084.9 96337.4,39397.4 97316,41304.6 C 95579,39707.3 96337.4,37037.2 96753.3,34987 C 97218.1,32650.6 97291.5,30385.8 96851.2,27954.1 L 96851.2,27954.1 z M 187296.7,101095.5 C 186513.9,103336.4 184703.5,103837.1 182501.7,103884.8 C 184238.7,103169.6 185828.9,102263.6 187296.7,101095.5 z M 78306.7,117306.7 C 79114,116090.9 85107.9,117306.7 85792.9,109248.8 C 85890.7,107961.4 88092.6,108938.8 87627.7,110107 C 85548.2,115184.9 82514.6,117735.8 78306.7,117306.7 z M 85401.4,120191.4 C 86429,118498.7 90685.8,119690.7 92153.7,111561.3 C 92324.9,110607.7 93939.6,111156 93646,112133.4 C 91786.7,118236.5 87089.5,120715.8 85401.4,120191.4 z M 90832.6,120715.8 C 91737.8,119929.1 96973.2,120954.2 97658.2,113969.1 C 97780.5,112705.6 99542,113563.8 99272.9,114636.6 C 97829.5,120358.2 92594,122050.9 90832.6,120715.8 z M 119113.6,108462 C 117327.7,105720.4 114807.9,99808.1 112263.6,93824.2 C 115468.4,99522 118379.7,105315.2 122856.7,110440.8 C 121609,109773.3 120361.3,109105.7 119113.6,108462 L 119113.6,108462 z M 73854.2,14913.6 C 74759.4,10527 77377.1,10002.6 80092.6,10765.4 C 82441.2,11433 83860.2,14341.5 84789.8,16868.5 C 83150.7,16582.4 82416.8,12267.4 79823.5,11528.3 C 75566.7,10312.5 75199.7,14150.7 73854.2,14913.6 L 73854.2,14913.6 z M 84300.5,17321.5 C 81193.5,16344 81266.9,12315.1 78257.8,12434.3 C 76349.5,12505.8 75248.6,13721.6 75297.6,15557.3 C 75346.5,17178.4 76496.3,18203.5 78331.2,18132 C 79554.4,18084.3 80361.7,17559.9 81462.6,16558.6 C 82636.9,17607.5 83468.7,17750.6 84300.5,17321.5 z M 61401.7,84765 C 60300.8,85885.5 57536.3,85289.5 54404.8,84359.7 C 56190.7,83477.7 56875.7,79854 62600.5,77970.6 C 62306.9,79472.5 58955.2,78876.5 56337.5,83835.3 C 58930.8,85694.8 60936.9,84240.5 61401.7,84765 L 61401.7,84765 z M 94967.1,72201.3 C 98808,70008 104899.7,74394.6 112410.4,70365.6 C 118917.9,66908.8 124716,60257.4 119554,48861.9 C 115810.9,40589.4 120508.1,33532.7 129144.1,30695.7 C 145070.6,25450.9 154758.5,15748 156348.7,13316.3 C 154734.1,20682.9 143651.6,29646.8 134697.6,31816.2 C 125034.1,34176.4 120801.7,43259.5 125058.5,55608.6 C 127847.5,63714.2 121878.1,71414.6 112875.2,73584 C 104752.9,75538.9 97095.5,72177.5 94967.1,72201.3 z M 47041,157882.5 C 48239.7,156714.3 49805.5,153186 52716.8,150349 C 56508.8,146653.8 59517.9,145461.8 65095.8,147226 C 67738,148060.4 66294.6,152923.8 62649.4,151970.2 C 58881.8,150992.7 56875.7,150825.8 53964.5,151946.3 C 50881.9,153138.3 49047.1,157811 47041,157882.5 L 47041,157882.5 z M 52912.5,153901.2 C 54673.9,151922.5 56851.3,151684.1 58906.3,152041.7 C 60912.4,152399.3 62845.1,153186 64337.4,152828.4 C 62967.4,154282.7 61915.4,153877.4 58857.4,152923.8 C 56190.7,152089.4 53573,153972.7 52912.5,153901.2 z M 60300.8,162579 C 60300.8,158049.4 63358.9,158359.3 64508.7,155164.7 C 64924.6,154020.4 66294.6,154664.1 66147.8,155570 C 65707.5,158264 64631,158073.2 63628,158836.1 C 60961.3,160886.4 61034.7,162412.1 60300.8,162579 L 60300.8,162579 z M 104801.9,192879.7 C 108691.7,191163.2 108569.4,187778 106000.6,183009.9 C 103407.4,178170.4 106196.3,171256.8 110012.8,170350.9 C 112434.8,169778.7 112924.1,170184 113731.4,171304.5 C 114563.2,172472.6 114196.3,174785.1 112703.9,175714.9 C 110135.1,177336 106930.3,178933.3 109474.6,185036.3 C 112214.6,191640 106098.5,194262.5 104801.9,192879.7 z M 109792.6,183057.6 C 109303.3,182843.1 108814.1,179410.1 110575.5,177932 C 112337,176453.9 113829.3,176239.4 114563.2,174832.8 C 114073.9,176978.4 113266.6,177526.7 111309.4,178790.2 C 110061.7,179624.7 110037.3,182366.3 109792.6,183057.6 L 109792.6,183057.6 z M 119602.9,185155.5 C 117303.3,184964.8 116153.4,183439.1 115419.5,179886.9 C 115174.8,178599.5 115174.8,177073.8 115713.1,175905.6 C 116177.9,174904.3 117058.6,175285.8 117425.6,176263.2 C 117866,177431.4 117743.6,178671 117499,180006.1 C 117034.2,182366.3 118624.4,184249.6 119602.9,185155.5 z "
     id="path1899"
     style="fill:#ff0000" /><path
     d="M 78796.3,13411.7 C 79261.1,13411.7 79652.6,13817 79652.6,14317.6 C 79652.6,14818.3 79261.1,15199.7 78796.3,15199.7 C 78331.5,15199.7 77940,14818.3 77940,14317.6 C 77940,13817 78331.5,13411.7 78796.3,13411.7 z M 76447.7,14913.6 C 76839.1,15819.5 77328.4,16558.6 78160.2,17130.7 C 77573.1,17226.1 77010.4,17273.8 76545.6,16773.1 C 76080.7,16272.5 76252,15509.6 76447.7,14913.6 L 76447.7,14913.6 z M 9561.5,35416.1 C 9121.2,32889 9928.5,31172.5 12399.4,30457.3 C 13133.4,31029.5 13451.4,31673.2 13524.8,32459.9 C 11763.3,32436.1 10515.6,33795 9561.5,35416.1 z M 11616.6,118713.3 C 11616.6,114994.2 13231.2,113325.4 16387.1,113611.5 C 16876.4,114112.1 17023.2,114803.5 16827.5,115876.3 C 14356.6,115328 12962.1,116877.6 11616.6,118713.3 z M 17179.3,137763.7 C 16494.3,136094.9 16583.8,134084.3 18516.5,132415.5 C 19250.5,132630.1 20179.2,133494.1 20252.6,134352.4 C 18833.6,135043.7 17937.7,136381 17179.3,137763.7 L 17179.3,137763.7 z M 37206.5,173211.7 C 38943.5,173521.6 40802.8,174594.4 41267.6,178003.5 C 40827.3,178408.8 39824.2,178218.1 39408.3,178003.5 C 39016.9,175786.4 38209.6,174284.5 37206.5,173211.7 L 37206.5,173211.7 z M 26955.8,196026.6 C 26784.6,194190.9 26980.3,192355.2 29720.3,191139.4 C 29965,191401.6 30111.8,191711.6 30160.7,192045.3 C 28766.2,192093 27836.6,194024.1 26955.8,196026.6 L 26955.8,196026.6 z M 40386.9,209806.2 C 39750.8,208590.3 39604,207398.3 39995.5,206206.3 C 40680.5,206063.3 41341,206325.5 41928.2,206993.1 C 41096.4,207279.1 40680.5,208423.5 40386.9,209806.2 L 40386.9,209806.2 z M 103774.7,210998.2 C 103994.8,208161.2 104508.6,205300.4 109401.5,205681.8 C 109572.8,206039.4 109572.8,206301.7 109499.4,206540.1 C 107101.8,205944.1 105120.2,207875.1 103774.7,210998.2 z M 115713.4,226899.5 C 114759.3,225278.4 114514.6,223442.7 115835.7,221154.1 C 116251.6,221177.9 116569.6,221344.8 116887.7,221654.7 C 115958,223252 115737.8,225016.1 115713.4,226899.5 z M 14060.4,10596.5 C 15826,10362.6 18075.3,11309.2 19218.6,14562.8 C 18868.7,14915.3 17846.7,14935.6 17395.5,14918.9 C 16564.6,12819.9 15493.5,11091.7 14060.4,10596.5 L 14060.4,10596.5 z M 38244.5,11218.4 C 39253.8,12649.4 39912.2,14599.7 37445.7,17059.5 C 36965.1,16913.7 36323.3,16101.9 36228.6,15724.6 C 38082.9,14056.6 38574.8,12688.3 38244.5,11218.4 L 38244.5,11218.4 z M 22860.3,53219.2 C 24766,53169.8 26045.9,52801.4 26773.7,50161.5 C 26049.2,49578 25734.2,49519.8 24905.6,49519.1 C 24932.8,51149 24509.9,52456.8 22860.3,53219.2 L 22860.3,53219.2 z M 54419.7,137695.8 C 55733.8,136553.5 55534.5,134994.1 54138.2,132981.6 C 53528.5,133235.3 53356.5,133611.5 53188.5,134276.6 C 54209.6,135346.9 54592.7,136456.1 54419.7,137695.8 z M 25387,101856.2 C 27230.7,101654.1 28255.4,102541.7 29205.5,104651.2 C 28608.4,104940.9 27797,104940.4 27177.2,104654.8 C 26823,103117.2 26493.1,102498.4 25387,101856.2 z M 59654.8,210197.2 C 61206.1,209384.8 61571.9,207253.6 60695.4,204979.4 C 60041.9,205087.7 59691.3,205414.4 59368.8,206022.9 C 60105.8,207295.7 60119.7,209030.9 59654.8,210197.2 z M 117711.6,192400.1 C 119458.6,192149.5 121728,193262.2 123292.6,196344.9 C 123009.3,196866.6 121919,196434.2 121377,196248 C 120275.2,194271.2 119015.2,193101.8 117711.6,192400.1 z M 141770.6,225729.8 C 143258.6,224812 143080.6,222358.9 142040.3,220151.4 C 141396.3,220304.6 141264,220994.4 140986.8,221623.8 C 141814.8,222842.2 142149.1,224534.4 141770.6,225729.8 z "
     id="path1901"
     style="fill:#ffffff" /></g>
</svg>